<svg width="35" height="35" viewBox="0 0 35 35" fill="none" xmlns="http://www.w3.org/2000/svg">
<path fill-rule="evenodd" clip-rule="evenodd" d="M35 17.5C35 27.165 27.165 35 17.5 35C7.83502 35 0 27.165 0 17.5C0 7.83502 7.83502 0 17.5 0C27.165 0 35 7.83502 35 17.5ZM6.73438 10.8594C6.73438 10.3071 7.18209 9.85938 7.73438 9.85938H27.2656C27.8179 9.85938 28.2656 10.3071 28.2656 10.8594V25.7031C28.2656 26.2554 27.8179 26.7031 27.2656 26.7031H7.73438C7.18209 26.7031 6.73438 26.2554 6.73438 25.7031V10.8594ZM8.73438 13.156V24.7031H26.2656V13.156L18.1562 20.2077C17.7799 20.5349 17.2201 20.5349 16.8438 20.2077L8.73438 13.156ZM10.2912 11.8594L17.5 18.1279L24.7088 11.8594H10.2912Z" fill="white"/>
</svg>
