<svg width="24" height="24" viewBox="0 0 24 24" fill="none" xmlns="http://www.w3.org/2000/svg">
<path fill-rule="evenodd" clip-rule="evenodd" d="M24 11.875C24 18.4334 18.6834 23.75 12.125 23.75C5.56662 23.75 0.25 18.4334 0.25 11.875C0.25 5.31662 5.56662 0 12.125 0C18.6834 0 24 5.31662 24 11.875ZM4.49833 7.36886C4.49833 6.81658 4.94604 6.36886 5.49833 6.36886H18.7517C19.304 6.36886 19.7517 6.81658 19.7517 7.36886V17.4414C19.7517 17.9937 19.304 18.4414 18.7517 18.4414H5.49833C4.94604 18.4414 4.49833 17.9937 4.49833 17.4414V7.36886ZM6.49833 9.63277V16.4414H17.7517V9.63277L12.7812 13.9549C12.4049 14.2821 11.8451 14.2821 11.4688 13.9549L6.49833 9.63277ZM8.09278 8.36886L12.125 11.8751L16.1572 8.36886H8.09278Z" fill="#272727"/>
</svg>
