<svg width="24" height="24" viewBox="0 0 24 24" fill="none" xmlns="http://www.w3.org/2000/svg">
<g clip-path="url(#clip0_104_15)">
<path d="M23.75 11.875C23.75 5.31592 18.4341 0 11.875 0C5.31592 0 0 5.31592 0 11.875C0 18.4341 5.31592 23.75 11.875 23.75C11.9446 23.75 12.0142 23.75 12.0837 23.7454V14.5051H9.53247V11.5317H12.0837V9.34229C12.0837 6.80493 13.6331 5.42261 15.8967 5.42261C16.9822 5.42261 17.9146 5.50146 18.1836 5.53857V8.19189H16.625C15.3958 8.19189 15.1545 8.77637 15.1545 9.63452V11.5271H18.1001L17.7151 14.5005H15.1545V23.2908C20.1179 21.8667 23.75 17.2976 23.75 11.875Z" fill="#272727"/>
</g>
<defs>
<clipPath id="clip0_104_15">
<rect width="23.75" height="23.75" fill="white"/>
</clipPath>
</defs>
</svg>
