<svg width="24" height="24" viewBox="0 0 24 24" fill="none" xmlns="http://www.w3.org/2000/svg">
<g clip-path="url(#clip0_104_17)">
<path d="M14.1479 11.875C14.1479 13.1303 13.1303 14.1479 11.875 14.1479C10.6197 14.1479 9.60205 13.1303 9.60205 11.875C9.60205 10.6197 10.6197 9.60205 11.875 9.60205C13.1303 9.60205 14.1479 10.6197 14.1479 11.875Z" fill="#272727"/>
<path d="M17.1906 7.85354C17.0814 7.55747 16.907 7.28947 16.6805 7.0695C16.4606 6.843 16.1928 6.66869 15.8965 6.55943C15.6562 6.46611 15.2953 6.35504 14.6305 6.32478C13.9113 6.29198 13.6957 6.28491 11.875 6.28491C10.0541 6.28491 9.83851 6.2918 9.11951 6.32459C8.4547 6.35504 8.09357 6.46611 7.85348 6.55943C7.55722 6.66869 7.28923 6.843 7.06944 7.0695C6.84294 7.28947 6.66863 7.55729 6.55918 7.85354C6.46587 8.09381 6.35479 8.45494 6.32453 9.11976C6.29173 9.83875 6.28467 10.0544 6.28467 11.8752C6.28467 13.6959 6.29173 13.9115 6.32453 14.6307C6.35479 15.2955 6.46587 15.6565 6.55918 15.8967C6.66863 16.193 6.84276 16.4608 7.06926 16.6808C7.28923 16.9073 7.55704 17.0816 7.8533 17.1909C8.09357 17.2844 8.4547 17.3954 9.11951 17.4257C9.83851 17.4585 10.054 17.4654 11.8748 17.4654C13.6959 17.4654 13.9115 17.4585 14.6303 17.4257C15.2951 17.3954 15.6562 17.2844 15.8965 17.1909C16.4912 16.9615 16.9612 16.4914 17.1906 15.8967C17.2839 15.6565 17.395 15.2955 17.4255 14.6307C17.4583 13.9115 17.4651 13.6959 17.4651 11.8752C17.4651 10.0544 17.4583 9.83875 17.4255 9.11976C17.3952 8.45494 17.2841 8.09381 17.1906 7.85354ZM11.875 15.3765C9.94106 15.3765 8.37334 13.809 8.37334 11.8751C8.37334 9.94113 9.94106 8.37358 11.875 8.37358C13.8087 8.37358 15.3765 9.94113 15.3765 11.8751C15.3765 13.809 13.8087 15.3765 11.875 15.3765ZM15.5149 9.05344C15.063 9.05344 14.6966 8.68706 14.6966 8.23515C14.6966 7.78324 15.063 7.41686 15.5149 7.41686C15.9668 7.41686 16.3332 7.78324 16.3332 8.23515C16.333 8.68706 15.9668 9.05344 15.5149 9.05344Z" fill="#272727"/>
<path d="M11.875 0C5.31762 0 0 5.31762 0 11.875C0 18.4324 5.31762 23.75 11.875 23.75C18.4324 23.75 23.75 18.4324 23.75 11.875C23.75 5.31762 18.4324 0 11.875 0ZM18.6527 14.6863C18.6197 15.4122 18.5043 15.9077 18.3358 16.3415C17.9816 17.2575 17.2575 17.9816 16.3415 18.3358C15.9079 18.5043 15.4122 18.6196 14.6865 18.6527C13.9593 18.6859 13.727 18.6938 11.8752 18.6938C10.0232 18.6938 9.79104 18.6859 9.06371 18.6527C8.33801 18.6196 7.84225 18.5043 7.40865 18.3358C6.95348 18.1646 6.54143 17.8962 6.20078 17.5492C5.85397 17.2087 5.58561 16.7965 5.41438 16.3415C5.24587 15.9079 5.13044 15.4122 5.09747 14.6865C5.06394 13.9591 5.05615 13.7268 5.05615 11.875C5.05615 10.0232 5.06394 9.79086 5.09728 9.06371C5.13026 8.33783 5.2455 7.84225 5.41402 7.40847C5.58525 6.95348 5.85379 6.54125 6.20078 6.20078C6.54125 5.85379 6.95348 5.58543 7.40847 5.4142C7.84225 5.24569 8.33783 5.13044 9.06371 5.09728C9.79086 5.06413 10.0232 5.05615 11.875 5.05615C13.7268 5.05615 13.9591 5.06413 14.6863 5.09747C15.4122 5.13044 15.9077 5.24569 16.3415 5.41402C16.7965 5.58525 17.2087 5.85379 17.5494 6.20078C17.8962 6.54143 18.1647 6.95348 18.3358 7.40847C18.5045 7.84225 18.6197 8.33783 18.6529 9.06371C18.6861 9.79086 18.6938 10.0232 18.6938 11.875C18.6938 13.7268 18.6861 13.9591 18.6527 14.6863Z" fill="#272727"/>
</g>
<defs>
<clipPath id="clip0_104_17">
<rect width="23.75" height="23.75" fill="white"/>
</clipPath>
</defs>
</svg>
